<?xml version="1.0" encoding="UTF-8"?>
<svg xmlns="http://www.w3.org/2000/svg" xmlns:xlink="http://www.w3.org/1999/xlink" width="1024pt" height="1024pt" viewBox="0 0 1024 1024" version="1.1">
<g id="surface1">
<rect x="0" y="0" width="1024" height="1024" style="fill:rgb(100%,100%,100%);fill-opacity:1;stroke:none;"/>
<path style=" stroke:none;fill-rule:nonzero;fill:rgb(78.431373%,95.686275%,81.176471%);fill-opacity:1;" d="M 412.339844 406.632812 L -1170.710938 -169.550781 C -1204.996094 -182.027344 -1222.675781 -219.941406 -1210.195312 -254.226562 L -634.011719 -1837.273438 C -621.535156 -1871.558594 -583.621094 -1889.238281 -549.335938 -1876.757812 L 1033.710938 -1300.578125 C 1067.996094 -1288.097656 1085.675781 -1250.1875 1073.195312 -1215.902344 L 497.015625 367.148438 C 484.535156 401.433594 446.625 419.113281 412.339844 406.632812 Z M 412.339844 406.632812 "/>
<path style=" stroke:none;fill-rule:nonzero;fill:rgb(96.078431%,76.862745%,76.862745%);fill-opacity:1;" d="M 1577.144531 2904.566406 L -5.90625 2328.382812 C -40.191406 2315.90625 -57.867188 2277.996094 -45.390625 2243.707031 L 530.792969 660.660156 C 543.273438 626.375 581.183594 608.695312 615.46875 621.175781 L 2198.515625 1197.355469 C 2232.804688 1209.835938 2250.480469 1247.746094 2238.003906 1282.03125 L 1661.820312 2865.082031 C 1649.339844 2899.367188 1611.429688 2917.046875 1577.144531 2904.566406 Z M 1577.144531 2904.566406 "/>
<path style=" stroke:none;fill-rule:nonzero;fill:rgb(93.72549%,93.72549%,93.72549%);fill-opacity:1;" d="M -254.226562 2238.003906 L -1837.273438 1661.820312 C -1871.558594 1649.339844 -1889.238281 1611.429688 -1876.757812 1577.144531 L -1300.578125 -5.90625 C -1288.097656 -40.191406 -1250.1875 -57.867188 -1215.902344 -45.390625 L 367.148438 530.792969 C 401.433594 543.273438 419.113281 581.183594 406.632812 615.46875 L -169.550781 2198.515625 C -182.027344 2232.804688 -219.941406 2250.480469 -254.226562 2238.003906 Z M -254.226562 2238.003906 "/>
<path style=" stroke:none;fill-rule:nonzero;fill:rgb(93.72549%,93.72549%,93.72549%);fill-opacity:1;" d="M 2243.707031 1073.195312 L 660.660156 497.015625 C 626.375 484.535156 608.695312 446.625 621.175781 412.339844 L 1197.355469 -1170.710938 C 1209.835938 -1204.996094 1247.746094 -1222.675781 1282.03125 -1210.195312 L 2865.082031 -634.011719 C 2899.367188 -621.535156 2917.046875 -583.621094 2904.566406 -549.335938 L 2328.382812 1033.710938 C 2315.90625 1067.996094 2277.996094 1085.675781 2243.707031 1073.195312 Z M 2243.707031 1073.195312 "/>
</g>
</svg>
